<svg id="mapBtn1" xmlns="http://www.w3.org/2000/svg" viewBox="0 0 224.02 593"><title>mapBtn1</title><path d="M100.07,377.52c-41.73,0-73.89-23.29-83.2-61.84a81,81,0,0,1,88.7-99.38,107.63,107.63,0,0,0,12.57,1.34,108.84,108.84,0,0,0,108.35-118,108.83,108.83,0,0,0-191.62-61l9,7.57a97.09,97.09,0,0,1,148.4,125.24c-19.61,23.24-51,37.64-78.77,34.36-17.82-2.1-26.72-2.37-39.63.75A92.74,92.74,0,0,0,95.6,389.41c45.42,0,57.34,11.29,72.63,27a97.09,97.09,0,0,1-69.5,164.87H97.48A97.63,97.63,0,0,1,55,570.86l-5.29,10.48A109.44,109.44,0,0,0,97.33,593h1.4a108.83,108.83,0,0,0,77.91-184.8C159.83,391,141.79,377.52,100.07,377.52Z" transform="translate(-2.85 0)" style="fill:#fff"/></svg>